<?xml version="1.0" encoding="iso-8859-1"?>
<!DOCTYPE svg PUBLIC "-//W3C//DTD SVG 1.1//EN" "http://www.w3.org/Graphics/SVG/1.1/DTD/svg11.dtd">
<svg version="1.1" xmlns="http://www.w3.org/2000/svg" xmlns:xlink="http://www.w3.org/1999/xlink" viewBox="0 0 229.731 229.731" xml:space="preserve">
	<g>
		<path d="M43.582,32.332c-5.138,4.203-16.345-3.48-23.813-7.105c-7.471-3.631-16.345,1.973-7.94,16.911
			c8.404,14.938,17.745,20.547,9.341,20.547c-8.406,0-5.139,15.875,15.873,13.072c4.834-0.643,8.689-0.755,11.822-0.561
			c-0.118-2.667-0.374-4.566-0.509-5.354c-2.237-6.126-3.367-12.457-3.367-18.834c0-7.872,1.686-15.346,4.672-22.129
			C47.263,29.952,45.05,31.128,43.582,32.332z"/>
		<path d="M116.414,229.731c54.923,0,93.008-26.584,99.461-57.899c13.065-63.502,0-86.852-12.139-85.894
			c-12.137,0.96-25.215,26.124-39.222,27.059c-14.008,0.936-10.277-14.009-30.82-14.009c-5.285,0-8.979-1.931-11.571-4.774
			c16.759-7.929,28.384-24.946,28.384-44.72C150.507,22.162,128.343,0,101.012,0C73.679,0,51.517,22.162,51.517,49.495
			c0,6.115,1.161,11.942,3.187,17.349c0,0,6.961,34.14-22.804,62.028c-16.872,15.809-14.938,42.961-14.938,42.961
			C16.956,203.8,61.49,229.731,116.414,229.731z M78.288,24.157c4.383,0,7.93,3.551,7.93,7.929s-3.551,7.929-7.93,7.929
			c-4.383,0-7.934-3.551-7.934-7.929S73.905,24.157,78.288,24.157z"/>
	</g>
</svg>
